# xmcd
#
# Track frame offsets:
#	150
#	14054
#	24690
#	41696
#	54953
#	65705
#	87042
#	105732
#	120705
#	132788
#	148334
#	159482
#
# Disc length: 2281 seconds
#
# Revision: 1
# Processed by: cddbd v1.5.2PL0 Copyright (c) Steve Scherf et al.
# Submitted via: EasyCDDAExtractor 12.0.1.1
#
DISCID=a808e70c
DTITLE=Bap Kennedy - Howl on
DYEAR=2009
DGENRE=country
TTITLE0=America
TTITLE1=Gold war country blues
TTITLE2=The right stuff
TTITLE3=Irish moon
TTITLE4=The blue one
TTITLE5=Hey Joe
TTITLE6=Howl on
TTITLE7=One of those days
TTITLE8=Brave captain
TTITLE9=Yhe heart of universal love
TTITLE10=Last adventure
TTITLE11=Ballad of Neil Amstrong
EXTD=
EXTT0=
EXTT1=
EXTT2=
EXTT3=
EXTT4=
EXTT5=
EXTT6=
EXTT7=
EXTT8=
EXTT9=
EXTT10=
EXTT11=
PLAYORDER=
